<svg aria-hidden="true" style="position: absolute; width: 0; height: 0; overflow: hidden;" version="1.1" xmlns="http://www.w3.org/2000/svg" xmlns:xlink="http://www.w3.org/1999/xlink">
<defs>
<symbol id="icon-bottom-tab-home" viewBox="0 0 19 19">
<path d="M9.31011 3.74049C9.25712 3.68979 9.18661 3.6615 9.11328 3.6615C9.03994 3.6615 8.96943 3.68979 8.91644 3.74049L2.36352 10.0005C2.33569 10.0271 2.31355 10.0591 2.29844 10.0945C2.28333 10.1299 2.27556 10.168 2.2756 10.2066L2.27454 16.0818C2.27454 16.3838 2.39454 16.6736 2.60815 16.8872C2.82175 17.1008 3.11147 17.2208 3.41356 17.2208H6.83417C6.98521 17.2208 7.13007 17.1608 7.23687 17.054C7.34368 16.9472 7.40368 16.8023 7.40368 16.6513V11.8104C7.40368 11.7349 7.43368 11.6625 7.48708 11.6091C7.54049 11.5557 7.61291 11.5257 7.68844 11.5257H10.536C10.6115 11.5257 10.6839 11.5557 10.7373 11.6091C10.7907 11.6625 10.8207 11.7349 10.8207 11.8104V16.6513C10.8207 16.8023 10.8807 16.9472 10.9875 17.054C11.0943 17.1608 11.2392 17.2208 11.3902 17.2208H14.8094C15.1115 17.2208 15.4012 17.1008 15.6148 16.8872C15.8285 16.6736 15.9485 16.3838 15.9485 16.0818V10.2066C15.9485 10.168 15.9407 10.1299 15.9256 10.0945C15.9105 10.0591 15.8884 10.0271 15.8605 10.0005L9.31011 3.74049Z" fill="black"/>
<path d="M17.4737 8.82588L14.8112 6.27875V2.41356C14.8112 2.26251 14.7512 2.11766 14.6444 2.01085C14.5376 1.90405 14.3928 1.84405 14.2417 1.84405H12.5332C12.3822 1.84405 12.2373 1.90405 12.1305 2.01085C12.0237 2.11766 11.9637 2.26251 11.9637 2.41356V3.55258L9.90207 1.58136C9.70915 1.3863 9.42226 1.27454 9.11223 1.27454C8.80327 1.27454 8.51709 1.3863 8.32417 1.58172L0.75326 8.82517C0.531864 9.03874 0.5041 9.39005 0.705564 9.62142C0.756154 9.67981 0.818099 9.72731 0.887628 9.76101C0.957157 9.79471 1.03282 9.81391 1.11 9.81744C1.18719 9.82096 1.26428 9.80875 1.3366 9.78154C1.40891 9.75433 1.47493 9.71268 1.53064 9.65915L8.91646 2.60149C8.96946 2.5508 9.03996 2.52251 9.1133 2.52251C9.18663 2.52251 9.25714 2.5508 9.31014 2.60149L16.6967 9.65915C16.8055 9.76349 16.9512 9.82043 17.1019 9.8175C17.2527 9.81456 17.3961 9.75199 17.5007 9.64348C17.7193 9.4171 17.7011 9.04336 17.4737 8.82588Z" fill="black"/>
</symbol>
<symbol id="icon-bottom-tab-timezone" viewBox="0 0 20 20">
<path d="M14.4874 2.65288C13.7114 1.86921 12.7882 1.24658 11.7708 0.820775C10.7535 0.394968 9.662 0.174371 8.55914 0.171656C7.45628 0.168942 6.36375 0.384164 5.34431 0.804958C4.32488 1.22575 3.39863 1.84383 2.61879 2.62367C1.83894 3.40351 1.22087 4.32976 0.800076 5.34919C0.379281 6.36863 0.164059 7.46116 0.166773 8.56402C0.169488 9.66688 0.390085 10.7583 0.815893 11.7757C1.2417 12.793 1.86433 13.7162 2.648 14.4922C3.424 15.2759 4.34719 15.8985 5.36454 16.3243C6.38189 16.7501 7.47335 16.9707 8.57621 16.9735C9.67907 16.9762 10.7716 16.7609 11.791 16.3402C12.8105 15.9194 13.7367 15.3013 14.5166 14.5214C15.2964 13.7416 15.9145 12.8154 16.3353 11.7959C16.7561 10.7765 16.9713 9.68395 16.9686 8.58109C16.9659 7.47823 16.7453 6.38677 16.3195 5.36942C15.8937 4.35207 15.271 3.42888 14.4874 2.65288V2.65288ZM1.39186 8.57255C1.39159 7.93746 1.4758 7.30515 1.64226 6.69227C1.91659 7.28278 2.315 7.79293 2.58596 8.39876C2.93615 9.17764 3.87648 8.96162 4.29171 9.64407C4.66022 10.2499 4.26667 11.0161 4.54249 11.6499C4.74281 12.11 5.21522 12.2105 5.54112 12.5469C5.87413 12.8863 5.86703 13.3512 5.91785 13.7937C5.97521 14.3136 6.06824 14.829 6.19629 15.3361C6.19629 15.3399 6.19629 15.344 6.19928 15.3477C3.40258 14.3655 1.39186 11.6996 1.39186 8.57255ZM8.56767 15.7484C8.16693 15.7482 7.76689 15.7147 7.37171 15.6482C7.37582 15.5469 7.37768 15.4524 7.38778 15.3866C7.47859 14.7923 7.77609 14.2112 8.17749 13.7664C8.57403 13.3277 9.11745 13.0309 9.45232 12.5331C9.78046 12.0472 9.87876 11.3932 9.74346 10.8255C9.54426 9.98679 8.40472 9.70686 7.79029 9.25201C7.43711 8.9904 7.12279 8.58601 6.65898 8.55312C6.4452 8.53817 6.26618 8.58414 6.05427 8.52957C5.85992 8.47912 5.70744 8.37447 5.50039 8.40175C5.11356 8.45258 4.86951 8.86594 4.45391 8.80988C4.05962 8.75718 3.65336 8.29561 3.56366 7.92C3.44855 7.43713 3.83051 7.28053 4.23976 7.23755C4.41056 7.21961 4.60229 7.20018 4.76636 7.26297C4.98238 7.34295 5.08441 7.55449 5.27838 7.66138C5.64203 7.86095 5.71566 7.54215 5.65997 7.21924C5.57663 6.73562 5.47946 6.53866 5.91075 6.20566C6.20975 5.97618 6.46538 5.81024 6.41755 5.398C6.38914 5.15582 6.25646 5.04631 6.38017 4.80525C6.47398 4.62175 6.73149 4.45618 6.8993 4.34667C7.33246 4.06412 8.75492 4.08505 8.17375 3.29422C8.00295 3.06213 7.68789 2.64727 7.3889 2.59047C7.01516 2.51983 6.84922 2.93692 6.58872 3.1208C6.31963 3.31104 5.79564 3.52706 5.52617 3.23293C5.16365 2.83714 5.76649 2.70745 5.89992 2.43088C5.96158 2.30194 5.89992 2.12292 5.79602 1.95436C5.93081 1.89755 6.06785 1.84485 6.20713 1.79627C6.29442 1.86074 6.39797 1.89957 6.50612 1.90839C6.75615 1.92483 6.99198 1.78954 7.21025 1.95997C7.45243 2.14684 7.62697 2.38304 7.94839 2.44134C8.25934 2.49778 8.5886 2.31651 8.66559 1.99809C8.71231 1.80449 8.6656 1.60005 8.62075 1.4001C10.0185 1.40815 11.3832 1.82676 12.545 2.60392C12.4703 2.57552 12.3809 2.57888 12.2707 2.63008C12.0438 2.73548 11.7224 3.00382 11.6959 3.26993C11.6656 3.57191 12.1111 3.61452 12.3226 3.61452C12.6403 3.61452 12.9621 3.47249 12.8597 3.10548C12.8152 2.94627 12.7547 2.7807 12.6571 2.68054C12.8916 2.84325 13.1163 3.01971 13.3299 3.20901C13.3265 3.21237 13.3231 3.21536 13.3198 3.2191C13.1045 3.44334 12.8545 3.62087 12.7072 3.8937C12.6033 4.0858 12.4863 4.17699 12.2759 4.2267C12.1601 4.25398 12.0278 4.26408 11.9306 4.34181C11.66 4.55485 11.814 5.06687 12.0704 5.22048C12.3944 5.41445 12.875 5.32326 13.1195 5.04631C13.3104 4.82954 13.4229 4.45319 13.7664 4.45356C13.9176 4.45325 14.0629 4.51245 14.1708 4.61838C14.3128 4.76564 14.2848 4.90317 14.3151 5.08705C14.3685 5.4137 14.6567 5.23655 14.8319 5.07173C14.9597 5.29912 15.075 5.5333 15.1773 5.77324C14.9844 6.05093 14.8312 6.35366 14.3674 6.03C14.0897 5.83603 13.9189 5.5546 13.5702 5.46715C13.2656 5.3924 12.9535 5.47014 12.6527 5.52209C12.3107 5.58151 11.9052 5.60767 11.6458 5.86667C11.395 6.11633 11.2623 6.45046 10.9955 6.70124C10.4794 7.1871 10.2615 7.71744 10.5956 8.40437C10.917 9.06477 11.5894 9.42319 12.3148 9.3761C13.0275 9.32863 13.7679 8.91528 13.7473 9.95091C13.7399 10.3175 13.8165 10.5713 13.929 10.9118C14.0333 11.2257 14.0262 11.53 14.0501 11.854C14.0728 12.2334 14.1321 12.6098 14.2272 12.9778C13.5573 13.8403 12.6992 14.5383 11.7183 15.0185C10.7374 15.4987 9.65977 15.7483 8.56767 15.7484V15.7484Z" fill="black"/>
</symbol>


</defs>
</svg>